<?xml version="1.0" standalone="no"?>
<!DOCTYPE svg PUBLIC "-//W3C//DTD SVG 20010904//EN"
 "http://www.w3.org/TR/2001/REC-SVG-20010904/DTD/svg10.dtd">
<svg version="1.0" xmlns="http://www.w3.org/2000/svg"
 width="128.000000pt" height="128.000000pt" viewBox="0 0 128.000000 128.000000"
 preserveAspectRatio="xMidYMid meet">

<g transform="translate(0.000000,128.000000) scale(0.100000,-0.100000)"
fill="#000000" stroke="none">
<path d="M424 1050 c-126 -72 -182 -214 -171 -428 6 -124 24 -191 70 -258 92
-136 316 -154 435 -36 27 26 55 58 63 72 16 24 16 23 43 -58 29 -87 43 -102
96 -102 57 0 119 92 120 178 0 35 -3 43 -16 40 -9 -2 -22 -20 -29 -42 -16 -46
-22 -53 -57 -61 -22 -6 -33 -1 -57 22 -34 34 -65 126 -52 152 8 14 121 505
121 524 0 4 -31 7 -70 7 -64 0 -70 -2 -75 -22 -3 -13 -14 -66 -25 -118 -12
-52 -22 -96 -24 -97 -2 -2 -13 23 -25 54 -36 93 -69 142 -119 174 -39 24 -56
29 -111 29 -55 0 -75 -5 -117 -30z m197 -53 c48 -32 93 -103 124 -197 26 -78
27 -85 15 -161 -29 -202 -97 -324 -186 -335 -50 -6 -96 21 -123 73 -33 66 -43
149 -39 319 4 140 7 166 29 219 40 97 110 129 180 82z"/>
</g>
</svg>
